<svg width="25" height="25" viewBox="0 0 25 25" fill="none" xmlns="http://www.w3.org/2000/svg">
<path d="M13.7931 19.0002L21.3469 18.9997L21.4472 18.9858L21.546 18.9582L21.6063 18.9326C21.6855 18.8978 21.7597 18.8471 21.825 18.7819L21.8657 18.7378L21.9092 18.6814L21.9634 18.5913L22.0021 18.501L22.0212 18.4369L22.0348 18.3729L22.0442 18.2787L22.0446 10.7463C22.0446 10.3321 21.7089 9.99633 21.2946 9.99633C20.915 9.99633 20.6012 10.2785 20.5515 10.6446L20.5446 10.7463L20.5442 16.4412L12.8254 8.72096C12.5591 8.45469 12.1424 8.43047 11.8488 8.64832L11.7647 8.72094L8.7942 11.6913L3.32452 6.22162C3.03163 5.92873 2.55675 5.92873 2.26386 6.22162C1.99759 6.48789 1.97339 6.90455 2.19124 7.19816L2.26386 7.28228L8.26386 13.2823C8.53012 13.5485 8.94678 13.5728 9.24039 13.3549L9.32451 13.2823L12.295 10.3119L19.4822 17.5002H13.7931C13.4134 17.5002 13.0996 17.7824 13.05 18.1485L13.0431 18.2502C13.0431 18.6299 13.3253 18.9437 13.6914 18.9934L13.7931 19.0002Z" fill="#FD1919"/>
</svg>
