<svg width="25" height="25" viewBox="0 0 25 25" fill="none" xmlns="http://www.w3.org/2000/svg">
<path d="M13.7931 6L21.3469 6.00052L21.4472 6.01444L21.546 6.04205L21.6063 6.0676C21.6855 6.10246 21.7597 6.15315 21.825 6.21836L21.8657 6.2624L21.9092 6.31878L21.9634 6.4089L22.0021 6.49922L22.0212 6.5633L22.0348 6.6273L22.0442 6.7215L22.0446 14.2539C22.0446 14.6681 21.7089 15.0039 21.2946 15.0039C20.915 15.0039 20.6012 14.7217 20.5515 14.3557L20.5446 14.2539L20.5442 8.559L12.8254 16.2793C12.5591 16.5455 12.1424 16.5698 11.8488 16.3519L11.7647 16.2793L8.7942 13.3089L3.32452 18.7786C3.03163 19.0715 2.55675 19.0715 2.26386 18.7786C1.99759 18.5123 1.97339 18.0957 2.19124 17.8021L2.26386 17.7179L8.26386 11.7179C8.53012 11.4517 8.94678 11.4275 9.24039 11.6453L9.32451 11.7179L12.295 14.6883L19.4822 7.5H13.7931C13.4134 7.5 13.0996 7.21785 13.05 6.85177L13.0431 6.75C13.0431 6.3703 13.3253 6.05651 13.6914 6.00685L13.7931 6Z" fill="#459912"/>
</svg>
