<svg width="41" height="41" viewBox="0 0 41 41" fill="none" xmlns="http://www.w3.org/2000/svg">
<path d="M12.0417 12.2743V8.94092C12.0417 6.1795 14.2802 3.94092 17.0417 3.94092C18.3223 3.94092 19.4903 4.42235 20.375 5.21408C21.2597 4.42233 22.4278 3.94092 23.7083 3.94092C26.4698 3.94092 28.7083 6.1795 28.7083 8.94092V12.2743H31.2083C32.589 12.2743 33.7083 13.3935 33.7083 14.7743V31.4492C33.7083 34.6662 31.1003 37.2743 27.8833 37.2743H13.7083C10.0264 37.2743 7.04166 34.2894 7.04166 30.6076V14.7743C7.04166 13.3935 8.16094 12.2743 9.54166 12.2743H12.0417ZM23.1 34.7743C22.4433 33.8314 22.0583 32.6852 22.0583 31.4492V14.7743H9.54166V30.6076C9.54166 32.9088 11.4071 34.7743 13.7083 34.7743H23.1ZM19.5417 12.2743V8.94092C19.5417 7.5602 18.4223 6.44092 17.0417 6.44092C15.6609 6.44092 14.5417 7.5602 14.5417 8.94092V12.2743H19.5417ZM22.0417 12.2743H26.2083V8.94092C26.2083 7.5602 25.089 6.44092 23.7083 6.44092C22.9333 6.44092 22.2408 6.79352 21.7823 7.34705C21.9505 7.84763 22.0417 8.38363 22.0417 8.94092V12.2743ZM24.5583 31.4492C24.5583 33.2856 26.047 34.7743 27.8833 34.7743C29.7197 34.7743 31.2083 33.2856 31.2083 31.4492V14.7743H24.5583V31.4492Z" fill="#020024"/>
</svg>
