<svg width="41" height="41" viewBox="0 0 41 41" fill="none" xmlns="http://www.w3.org/2000/svg">
<path d="M28.2898 3.94067L35.8795 3.94154L36.0467 3.96474L36.2113 4.01076L36.3118 4.05334C36.4438 4.11144 36.5675 4.19592 36.6763 4.30461L36.7442 4.37801L36.8167 4.47197L36.907 4.62217L36.9715 4.77271L37.0033 4.87951L37.026 4.98617L37.0417 5.14317L37.0423 12.6972C37.0423 13.3875 36.4828 13.9472 35.7923 13.9472C35.1597 13.9472 34.6367 13.4769 34.5538 12.8668L34.5423 12.6972L34.5417 8.20567L23.8095 18.9402C23.3657 19.384 22.6712 19.4243 22.1818 19.0613L22.0417 18.9403L16.9912 14.0894L7.50888 23.5717C7.02073 24.0598 6.22927 24.0598 5.74112 23.5717C5.29733 23.1278 5.257 22.4335 5.62008 21.9442L5.74112 21.8038L16.1073 11.4378C16.551 10.994 17.2455 10.9537 17.7348 11.3167L17.875 11.4378L22.9255 16.2886L32.7717 6.44067H28.2898C27.657 6.44067 27.134 5.97042 27.0513 5.36029L27.0398 5.19067C27.0398 4.55784 27.5102 4.03486 28.1203 3.95209L28.2898 3.94067ZM6.625 28.9407C7.31535 28.9407 7.875 29.5003 7.875 30.1907V36.024C7.875 36.7143 7.31535 37.274 6.625 37.274C5.93465 37.274 5.375 36.7143 5.375 36.024V30.1907C5.375 29.5003 5.93465 28.9407 6.625 28.9407ZM16.2083 23.524C16.2083 22.8337 15.6487 22.274 14.9583 22.274C14.268 22.274 13.7083 22.8337 13.7083 23.524V36.024C13.7083 36.7143 14.268 37.274 14.9583 37.274C15.6487 37.274 16.2083 36.7143 16.2083 36.024V23.524ZM23.2917 25.6073C23.982 25.6073 24.5417 26.167 24.5417 26.8573V36.024C24.5417 36.7143 23.982 37.274 23.2917 37.274C22.6013 37.274 22.0417 36.7143 22.0417 36.024V26.8573C22.0417 26.167 22.6013 25.6073 23.2917 25.6073ZM32.875 18.524C32.875 17.8337 32.3153 17.274 31.625 17.274C30.9347 17.274 30.375 17.8337 30.375 18.524V36.024C30.375 36.7143 30.9347 37.274 31.625 37.274C32.3153 37.274 32.875 36.7143 32.875 36.024V18.524Z" fill="#020024"/>
</svg>
