<svg width="41" height="41" viewBox="0 0 41 41" fill="none" xmlns="http://www.w3.org/2000/svg">
<path d="M27.2687 7.27307C27.061 5.39854 25.4715 3.94067 23.5417 3.94067H17.7084C15.7784 3.94067 14.189 5.39854 13.9813 7.27307L11.0417 7.27401C8.97062 7.27401 7.29169 8.95294 7.29169 11.024V33.524C7.29169 35.595 8.97062 37.274 11.0417 37.274H18.9607C18.9487 36.9532 18.9815 36.622 19.0654 36.2865L19.4435 34.774H11.0417C10.3513 34.774 9.79169 34.2143 9.79169 33.524V11.024C9.79169 10.3337 10.3513 9.77401 11.0417 9.77401L14.5901 9.77434C15.2628 10.7792 16.4083 11.4407 17.7084 11.4407H23.5417C24.8417 11.4407 25.9874 10.7791 26.66 9.77427L30.2084 9.77401C30.8987 9.77401 31.4584 10.3337 31.4584 11.024V20.375C32.1869 19.708 33.0519 19.2737 33.9584 19.072V11.024C33.9584 8.95294 32.2794 7.27401 30.2084 7.27401L27.2687 7.27307ZM27.283 7.43392L27.2917 7.69067C27.2917 7.60437 27.2889 7.51876 27.283 7.43392ZM17.7084 6.44067H23.5417C24.232 6.44067 24.7917 7.00032 24.7917 7.69067C24.7917 8.38102 24.232 8.94067 23.5417 8.94067H17.7084C17.018 8.94067 16.4584 8.38102 16.4584 7.69067C16.4584 7.00032 17.018 6.44067 17.7084 6.44067ZM22.885 28.9407H13.9584C13.268 28.9407 12.7084 29.5003 12.7084 30.1907C12.7084 30.881 13.268 31.4407 13.9584 31.4407H20.5967C20.838 31.0593 21.1217 30.704 21.4437 30.382L22.885 28.9407ZM20.625 24.774H13.9584C13.268 24.774 12.7084 24.2143 12.7084 23.524C12.7084 22.8337 13.268 22.274 13.9584 22.274H20.625C21.3154 22.274 21.875 22.8337 21.875 23.524C21.875 24.2143 21.3154 24.774 20.625 24.774ZM27.2917 18.1073H13.9584C13.268 18.1073 12.7084 17.5477 12.7084 16.8573C12.7084 16.167 13.268 15.6073 13.9584 15.6073H27.2917C27.982 15.6073 28.5417 16.167 28.5417 16.8573C28.5417 17.5477 27.982 18.1073 27.2917 18.1073ZM32.4582 21.7232L22.6207 31.5605C22.0472 32.134 21.6404 32.8527 21.4435 33.6397L20.6807 36.6908C20.349 38.0177 21.551 39.2197 22.8779 38.8878L25.929 38.125C26.7159 37.9283 27.4345 37.5215 28.0082 36.9478L37.8455 27.1105C39.3332 25.6228 39.3332 23.2108 37.8455 21.7232C36.3579 20.2353 33.9459 20.2353 32.4582 21.7232Z" fill="#020024"/>
</svg>
