<svg width="24" height="24" viewBox="0 0 24 24" fill="none" xmlns="http://www.w3.org/2000/svg">
<path d="M9.15085 9.55346C15.6634 9.55346 15.6634 9.55346 15.6634 9.55346C16.6836 9.55346 17.7003 8.57497 17.7003 7.10929C17.7003 5.76338 16.8862 4.78491 15.4608 4.78491C4.67176 4.78491 4.67175 4.78491 4.67175 4.78491C4.67175 19.3424 4.67175 19.3424 4.67175 19.3424C15.7664 19.3424 15.7665 19.3424 15.7665 19.3424C17.5972 19.4622 18.6174 18.2401 18.6174 16.6506C18.6174 14.9372 17.5972 13.8349 15.8695 13.9587C7.01434 13.9587 7.01434 13.9587 7.01434 13.9587C9.15086 9.55345 9.15085 9.55346 9.15085 9.55346ZM23.0931 16.8942C23.0931 20.6884 20.4482 23.5 16.1752 23.5C0.0930443 23.5 0.0930557 23.5 0.0930557 23.5C0.0930557 0.503494 0.0930557 0.503493 0.0930557 0.503493C16.0722 0.503493 16.0721 0.503493 16.0721 0.503493C19.7372 0.379735 22.1794 3.56282 22.1794 7.10929C22.1794 10.4122 20.2455 11.6343 20.2455 11.6343C20.2455 11.6343 23.0931 12.9803 23.0931 16.8942Z" fill="#909090"/>
</svg>
