<svg width="31" height="14" viewBox="0 0 31 14" fill="none" xmlns="http://www.w3.org/2000/svg">
<path d="M15.8143 0.112237C16.0108 0.11248 16.2072 0.110668 16.4037 0.10873C18.893 0.0992333 21.4146 0.863941 23.5498 2.13388C23.5498 2.18459 23.5498 2.23529 23.5498 2.28753C23.592 2.29506 23.6341 2.30258 23.6776 2.31034C24.2293 2.4764 24.7361 2.91265 25.163 3.28623C25.2226 3.33317 25.2821 3.38011 25.3434 3.42847C25.7726 3.76815 26.1719 4.12523 26.5603 4.51059C26.6046 4.55422 26.6489 4.59784 26.6946 4.64278C27.0068 4.95733 27.0068 4.95733 27.0068 5.12998C27.051 5.14701 27.0951 5.16404 27.1406 5.18159C27.3676 5.31509 27.4766 5.47385 27.631 5.68694C27.6606 5.72778 27.6903 5.76862 27.7209 5.81069C27.784 5.89782 27.8469 5.98514 27.9096 6.07263C28.0029 6.20196 28.0983 6.32958 28.1943 6.45697C28.8818 7.37912 29.4244 8.37522 29.8973 9.42246C29.9236 9.48046 29.95 9.53847 29.9771 9.59824C30.0967 9.87151 30.1565 10.0513 30.1565 10.3539C28.0517 11.3823 25.7792 11.6166 23.4729 11.199C23.4176 11.1891 23.3623 11.1792 23.3053 11.169C22.0518 10.9393 20.8187 10.5885 19.6318 10.1235C19.5466 10.0906 19.4615 10.0577 19.3737 10.0238C18.6626 9.74478 17.9654 9.43784 17.2686 9.12496C16.8927 8.95661 16.5156 8.79075 16.1376 8.62722C15.9826 8.56006 15.8279 8.49211 15.6742 8.42196C15.2427 8.23337 14.7955 8.11398 14.3406 7.99643C14.2781 7.97993 14.2155 7.96343 14.151 7.94643C10.7014 7.09053 6.52544 7.94649 3.52329 9.75406C3.05905 10.041 2.62321 10.3425 2.2278 10.7215C2.11617 10.8149 2.11617 10.8149 1.96252 10.8149C1.96252 10.8656 1.96252 10.9163 1.96252 10.9685C1.88647 10.9939 1.81042 11.0192 1.73206 11.0453C2.10982 8.801 3.44453 6.68468 4.8818 4.97633C4.91715 4.93147 4.9525 4.88661 4.98893 4.84039C5.24974 4.5098 5.55992 4.24762 5.88049 3.97763C5.97661 3.89611 6.07264 3.81449 6.16858 3.73276C6.20938 3.6984 6.25018 3.66403 6.29222 3.62863C6.38717 3.54431 6.47809 3.45541 6.5668 3.36455C6.84521 3.09245 7.17254 2.88982 7.49377 2.67164C7.58153 2.61036 7.66925 2.54904 7.75695 2.48769C9.22346 1.47196 10.8026 0.898433 12.5257 0.453383C12.5815 0.438708 12.6373 0.424033 12.6949 0.408913C13.7231 0.157771 14.761 0.109527 15.8143 0.112237Z" fill="#909090"/>
<path d="M9.99036 8.63978C10.0821 8.63995 10.0821 8.63995 10.1756 8.64012C11.1174 8.64329 12.0252 8.69321 12.948 8.89425C13.0022 8.90536 13.0563 8.91646 13.1121 8.9279C14.2282 9.15847 15.3384 9.48041 16.4042 9.88365C16.7276 10.004 17.0538 10.116 17.3798 10.2291C18.0577 10.4651 18.7301 10.7135 19.4012 10.9685C19.8344 11.1329 20.2699 11.2903 20.7072 11.4438C20.7667 11.4648 20.8262 11.4857 20.8875 11.5073C21.0322 11.5582 21.177 11.609 21.3217 11.6599C21.3217 11.7106 21.3217 11.7613 21.3217 11.8135C20.157 12.3553 19.5474 12.3939 18.3256 11.9672C16.6334 11.3848 14.9431 10.8865 13.1833 10.5555C13.1056 10.5408 13.1056 10.5408 13.0263 10.5259C12.1189 10.3559 11.2443 10.2638 10.3217 10.2723C10.2485 10.2726 10.1754 10.273 10.1 10.2733C9.92263 10.2742 9.74523 10.2755 9.56783 10.2771C9.63329 10.2921 9.63329 10.2921 9.70008 10.3074C11.7575 10.7824 11.7575 10.7824 12.5699 11.1373C12.8435 11.2515 13.1241 11.3466 13.4042 11.4438C13.464 11.4648 13.5239 11.4857 13.5856 11.5073C13.7315 11.5583 13.8775 11.6091 14.0236 11.6599C14.0236 11.7106 14.0236 11.7613 14.0236 11.8135C14.3024 11.8642 14.5813 11.9149 14.8686 11.9672C14.8686 12.0179 14.8686 12.0686 14.8686 12.1208C14.9332 12.1303 14.9977 12.1398 15.0643 12.1496C15.3449 12.2004 15.6123 12.2733 15.8865 12.3513C16.3396 12.477 16.78 12.5596 17.2501 12.5818C17.2501 12.6325 17.2501 12.6832 17.2501 12.7354C17.3247 12.7234 17.3993 12.7114 17.4761 12.6991C17.8662 12.6433 18.2579 12.6325 18.6514 12.6188C18.9427 12.6056 19.2105 12.5785 19.4927 12.5028C19.7599 12.4346 19.9725 12.4117 20.2462 12.4185C20.3191 12.4199 20.392 12.4213 20.4671 12.4227C20.521 12.4245 20.5748 12.4263 20.6303 12.4281C20.6873 12.6332 20.719 12.7706 20.66 12.9776C20.5166 13.1687 20.3746 13.2246 20.155 13.3164C20.0787 13.3486 20.0025 13.3807 19.9239 13.4139C19.8528 13.4435 19.7817 13.4731 19.7085 13.5036C19.6181 13.548 19.5278 13.5924 19.4348 13.6381C19.0261 13.7867 18.5909 13.8737 18.172 13.7341C18.172 13.7848 18.172 13.8355 18.172 13.8877C17.547 13.9097 16.9446 13.8251 16.3282 13.7341C16.3282 13.6834 16.3282 13.6327 16.3282 13.5805C16.1761 13.5805 16.024 13.5805 15.8673 13.5805C15.8673 13.5297 15.8673 13.479 15.8673 13.4268C15.8225 13.4416 15.7776 13.4563 15.7314 13.4715C15.494 13.516 15.3307 13.4249 15.1129 13.3356C14.9517 13.2755 14.8023 13.2413 14.6333 13.2107C14.261 13.1339 13.9233 12.9916 13.5727 12.8471C13.0241 12.623 12.4652 12.436 11.9007 12.2559C11.7794 12.217 11.6583 12.1776 11.5374 12.1375C9.35207 11.4149 6.83664 11.0599 4.57434 11.6599C4.50398 11.6784 4.43362 11.6969 4.36113 11.716C3.92091 11.8332 3.48221 11.9548 3.04482 12.0822C2.88424 12.1208 2.88424 12.1208 2.65377 12.1208C2.65377 12.1715 2.65377 12.2222 2.65377 12.2745C2.59148 12.2968 2.52919 12.3192 2.46501 12.3423C1.93996 12.5367 1.45628 12.7535 0.974767 13.0397C0.9204 13.066 0.866033 13.0924 0.810018 13.1195C0.759315 13.0942 0.708612 13.0688 0.656372 13.0427C1.0669 12.6167 1.47573 12.2141 1.95426 11.8648C2.12485 11.7353 2.12485 11.7353 2.29156 11.5566C3.08943 10.776 4.10971 10.2327 5.10265 9.74317C5.24551 9.67249 5.38718 9.59941 5.52863 9.52594C6.22609 9.17809 6.96474 8.98061 7.72408 8.81743C7.79116 8.8029 7.85824 8.78838 7.92735 8.77341C8.61452 8.64126 9.29338 8.63656 9.99036 8.63978Z" fill="#909090"/>
<path d="M7.97449 10.5331C8.04867 10.5405 8.12284 10.548 8.19926 10.5556C8.29596 10.5666 8.29596 10.5666 8.39462 10.5778C8.57336 10.5846 8.70514 10.5557 8.87626 10.5076C9.13784 10.4969 9.31812 10.5013 9.56767 10.5844C9.73226 10.5545 9.73226 10.5545 9.87496 10.5076C9.87496 10.5583 9.87496 10.609 9.87496 10.6613C9.93289 10.6004 9.93289 10.6004 9.99199 10.5382C10.2267 10.4057 10.3529 10.4405 10.6073 10.5081C10.6869 10.5316 10.6869 10.5316 10.768 10.5556C10.8228 10.5707 10.8775 10.5857 10.934 10.6012C11.0935 10.6455 11.2525 10.6916 11.4114 10.7381C11.5265 10.77 11.5265 10.77 11.644 10.8026C11.9635 10.8937 12.2615 11.0033 12.5665 11.1362C12.8413 11.2506 13.1228 11.3463 13.404 11.4439C13.4639 11.4648 13.5237 11.4858 13.5854 11.5074C13.7314 11.5584 13.8774 11.6092 14.0234 11.66C14.0234 11.7107 14.0234 11.7614 14.0234 11.8136C14.4417 11.8897 14.4417 11.8897 14.8684 11.9672C14.8684 12.018 14.8684 12.0687 14.8684 12.1209C14.933 12.1304 14.9976 12.1399 15.0641 12.1497C15.3447 12.2005 15.6121 12.2733 15.8864 12.3514C16.3395 12.4771 16.7798 12.5597 17.25 12.5818C17.25 12.6325 17.25 12.6832 17.25 12.7355C17.3245 12.7235 17.3991 12.7115 17.4759 12.6992C17.866 12.6434 18.2578 12.6326 18.6512 12.6189C18.9425 12.6057 19.2104 12.5786 19.4925 12.5029C19.7597 12.4347 19.9724 12.4117 20.2461 12.4186C20.3554 12.4207 20.3554 12.4207 20.4669 12.4228C20.5477 12.4255 20.5477 12.4255 20.6302 12.4282C20.6871 12.6333 20.7189 12.7707 20.6599 12.9776C20.5164 13.1688 20.3744 13.2247 20.1548 13.3165C20.0786 13.3486 20.0023 13.3808 19.9238 13.414C19.8527 13.4436 19.7816 13.4732 19.7083 13.5037C19.618 13.5481 19.5277 13.5924 19.4346 13.6381C19.0259 13.7868 18.5907 13.8738 18.1718 13.7342C18.1718 13.7849 18.1718 13.8356 18.1718 13.8878C17.5468 13.9098 16.9445 13.8251 16.3281 13.7342C16.3281 13.6835 16.3281 13.6328 16.3281 13.5805C16.176 13.5805 16.0239 13.5805 15.8671 13.5805C15.8671 13.5298 15.8671 13.4791 15.8671 13.4269C15.8223 13.4416 15.7774 13.4564 15.7312 13.4716C15.4938 13.5161 15.3306 13.425 15.1127 13.3357C14.9515 13.2756 14.8021 13.2414 14.6332 13.2108C14.2609 13.1339 13.9232 12.9917 13.5725 12.8472C13.0239 12.623 12.465 12.4361 11.9005 12.256C11.7792 12.2171 11.6581 12.1777 11.5372 12.1376C9.24164 11.3786 6.79809 11.1452 4.42053 11.66C4.47124 11.5839 4.52194 11.5078 4.57418 11.4295C4.60415 11.2766 4.63041 11.1229 4.651 10.9685C4.71438 10.948 4.77776 10.9274 4.84306 10.9061C5.02914 10.843 5.21321 10.7737 5.39522 10.6997C6.26258 10.3789 7.06745 10.4408 7.97449 10.5331Z" fill="#C0BFBE"/>
<path d="M8.95325 10.2003C11.4022 10.168 11.4022 10.168 12.4103 10.3539C12.5414 10.3775 12.5414 10.3775 12.6751 10.4015C12.9872 10.458 13.299 10.516 13.6106 10.5748C13.661 10.5842 13.7114 10.5937 13.7633 10.6034C14.4779 10.7384 15.1708 10.914 15.8673 11.1222C16.0187 11.1653 16.1701 11.2082 16.3216 11.2509C17.1342 11.483 17.938 11.724 18.7274 12.027C19.3544 12.2594 19.9133 12.3711 20.5439 12.092C21.0079 11.8919 21.0079 11.8919 21.1927 11.849C21.2353 11.8373 21.2779 11.8256 21.3217 11.8136C21.3471 11.7629 21.3724 11.7122 21.3986 11.6599C21.4746 11.6853 21.5507 11.7106 21.629 11.7367C21.629 11.686 21.629 11.6353 21.629 11.5831C21.7003 11.5522 21.7003 11.5522 21.7731 11.5207C21.9593 11.4329 21.9593 11.4329 22.09 11.199C22.3684 11.1077 22.3684 11.1077 22.6277 11.0453C22.5409 11.2664 22.4683 11.3571 22.2772 11.5063C22.075 11.6722 22.0584 11.7228 22.0131 11.9672C22.0613 11.971 22.1094 11.9747 22.159 11.9786C22.2218 11.9843 22.2846 11.9901 22.3492 11.996C22.4116 12.0014 22.474 12.0067 22.5383 12.0122C22.7045 12.044 22.7045 12.044 22.8582 12.1977C22.8075 12.223 22.7568 12.2484 22.7045 12.2745C22.6538 12.2491 22.6031 12.2238 22.5509 12.1977C22.5256 12.2737 22.5002 12.3498 22.4741 12.4281C22.4234 12.4028 22.3727 12.3774 22.3204 12.3513C22.2951 12.2753 22.2697 12.1992 22.2436 12.1208C22.1422 12.1208 22.0408 12.1208 21.9363 12.1208C21.9372 12.169 21.9381 12.2171 21.939 12.2667C21.9397 12.3295 21.9404 12.3923 21.9411 12.4569C21.942 12.5193 21.9429 12.5817 21.9438 12.646C21.9363 12.8123 21.9363 12.8123 21.8595 12.9659C21.9956 12.9882 21.9956 12.9882 22.1344 13.0109C22.254 13.0311 22.3737 13.0513 22.4933 13.0715C22.553 13.0812 22.6127 13.0909 22.6742 13.1009C22.9688 13.1513 23.2085 13.2053 23.4728 13.35C23.5488 13.35 23.6249 13.35 23.7032 13.35C23.7032 13.4007 23.7032 13.4514 23.7032 13.5037C23.2091 13.5355 22.8899 13.4735 22.4393 13.2741C22.1823 13.172 21.9265 13.129 21.6551 13.0814C21.3964 13.0257 21.1759 12.9262 20.9376 12.8123C20.8616 12.8883 20.7855 12.9644 20.7072 13.0427C20.6322 12.8178 20.624 12.662 20.6303 12.4281C20.4996 12.4448 20.4996 12.4448 20.3663 12.4617C20.0676 12.4995 19.7686 12.531 19.469 12.5602C19.3178 12.5751 19.3178 12.5751 19.1707 12.6586C19.052 12.6703 18.9328 12.6777 18.8136 12.6829C18.7072 12.6877 18.7072 12.6877 18.5987 12.6927C18.5245 12.6957 18.4502 12.6987 18.3737 12.7018C18.3 12.7051 18.2263 12.7085 18.1504 12.7119C17.8498 12.7251 17.5511 12.7354 17.2501 12.7354C17.2501 12.6847 17.2501 12.634 17.2501 12.5818C17.196 12.5965 17.1418 12.6113 17.086 12.6265C16.8312 12.6637 16.6668 12.6262 16.4195 12.5578C16.3388 12.536 16.2581 12.5142 16.1749 12.4918C16.0987 12.4708 16.0226 12.4498 15.9441 12.4281C15.8322 12.4006 15.7202 12.3733 15.608 12.3465C15.3568 12.2816 15.1134 12.2065 14.8686 12.1208C14.8686 12.0701 14.8686 12.0194 14.8686 11.9672C14.5897 11.9165 14.3109 11.8658 14.0236 11.8136C14.0236 11.7629 14.0236 11.7122 14.0236 11.6599C13.9797 11.6468 13.9358 11.6338 13.8906 11.6203C13.7572 11.5804 13.6239 11.5404 13.4906 11.5003C13.3274 11.4511 13.1642 11.4024 13.0009 11.3538C12.9153 11.3281 12.8297 11.3023 12.7416 11.2758C12.6621 11.252 12.5825 11.2283 12.5006 11.2038C12.2566 11.1222 12.2566 11.1222 11.9974 11.0093C11.6954 10.8818 11.3957 10.7868 11.0803 10.6996C11.0213 10.6832 10.9624 10.6668 10.9016 10.6499C10.2601 10.4776 9.6099 10.3726 8.95325 10.2771C8.95325 10.2517 8.95325 10.2264 8.95325 10.2003Z" fill="#FBF9F8"/>
<path d="M10.1824 10.4308C10.2585 10.5448 10.2585 10.5448 10.3361 10.6612C9.90629 10.6612 9.49459 10.6555 9.06938 10.5937C8.86555 10.5772 8.86555 10.5772 8.62345 10.6252C8.31084 10.6647 8.03255 10.6368 7.72408 10.5892C6.81787 10.4547 5.94527 10.4836 5.1121 10.8917C5.0408 10.9123 4.9695 10.9329 4.89604 10.9541C4.65547 11.0847 4.65714 11.2527 4.57434 11.5063C4.25867 11.7439 3.90224 11.8374 3.52763 11.9432C3.469 11.9605 3.41038 11.9778 3.34998 11.9956C3.11157 12.0644 2.90314 12.1209 2.65377 12.1209C2.65377 12.1716 2.65377 12.2223 2.65377 12.2745C2.59148 12.2969 2.52919 12.3193 2.46501 12.3423C1.93996 12.5367 1.45628 12.7535 0.974767 13.0397C0.9204 13.0661 0.866033 13.0924 0.810018 13.1196C0.759315 13.0942 0.708612 13.0689 0.656372 13.0427C0.909888 12.7892 1.1634 12.5357 1.4246 12.2745C1.4753 12.2999 1.52601 12.3252 1.57825 12.3513C1.85395 12.3 1.85395 12.3 2.11601 12.1977C2.14136 12.1216 2.16671 12.0456 2.19283 11.9672C2.36028 11.8634 2.36028 11.8634 2.56734 11.7656C2.63528 11.7329 2.70321 11.7002 2.7732 11.6665C2.96106 11.5831 2.96106 11.5831 3.19153 11.5063C3.2248 11.4683 3.25808 11.4302 3.29236 11.391C3.47429 11.2293 3.64592 11.2253 3.88293 11.199C3.88293 11.1483 3.88293 11.0976 3.88293 11.0453C4.76132 10.7301 5.61857 10.4537 6.54323 10.3161C6.78496 10.2849 6.78496 10.2849 6.94765 10.2372C7.91292 10.0169 9.24275 10.118 10.1824 10.4308Z" fill="#909090"/>
</svg>
