<svg width="29" height="30" viewBox="0 0 29 30" fill="none" xmlns="http://www.w3.org/2000/svg">
<path d="M18.129 5.28845C18.5211 5.28845 18.9133 5.28845 19.3173 5.28845C19.3173 5.34878 19.3173 5.40911 19.3173 5.47127C19.6793 5.56176 20.0413 5.65226 20.4142 5.7455C20.4142 5.80583 20.4142 5.86616 20.4142 5.92831C20.5349 5.92831 20.6555 5.92831 20.7799 5.92831C20.7799 5.98864 20.7799 6.04897 20.7799 6.11113C20.844 6.11985 20.9081 6.12857 20.9741 6.13756C21.2854 6.21454 21.5112 6.34528 21.7854 6.51105C21.8777 6.56643 21.9701 6.62181 22.0653 6.67887C22.1539 6.73284 22.2425 6.7868 22.3338 6.8424C22.5832 6.99218 22.8327 7.14159 23.0826 7.29052C23.2351 7.38261 23.2351 7.38261 23.3907 7.47655C23.4927 7.53771 23.5946 7.59886 23.6996 7.66187C23.9501 7.82857 24.135 8.00095 24.3448 8.21354C24.4353 8.2437 24.5258 8.27387 24.619 8.30495C24.8933 8.6198 24.8933 8.6198 24.8933 8.8534C24.9471 8.87673 25.001 8.90006 25.0564 8.9241C25.6272 9.24018 26.0644 9.92674 26.3558 10.4988C26.3558 10.5591 26.3558 10.6194 26.3558 10.6816C26.4463 10.7117 26.5368 10.7419 26.63 10.773C26.934 11.1446 27.1259 11.5724 27.2813 12.0238C27.3828 12.2924 27.5063 12.5477 27.6298 12.8068C27.8907 13.3692 28.104 13.9252 28.2754 14.5208C28.3096 14.6302 28.3437 14.7397 28.3789 14.8525C28.6477 15.8017 28.6731 16.7402 28.6696 17.7201C28.6694 17.7864 28.6692 17.8528 28.6689 17.9212C28.6621 19.0491 28.6621 19.0491 28.5496 19.274C28.5311 19.426 28.5163 19.5785 28.5039 19.7311C28.4684 20.1678 28.4684 20.1678 28.3668 20.3709C28.3065 20.3709 28.2461 20.3709 28.184 20.3709C28.184 20.4916 28.184 20.6123 28.184 20.7366C28.1237 20.7366 28.0633 20.7366 28.0012 20.7366C28.0068 20.8158 28.0125 20.8949 28.0183 20.9765C27.9987 21.3292 27.8913 21.5244 27.7269 21.8335C27.663 22.0835 27.663 22.0835 27.6355 22.2905C27.5752 22.2905 27.5149 22.2905 27.4527 22.2905C27.438 22.3883 27.438 22.3883 27.4231 22.488C27.3549 22.7743 27.2479 22.9882 27.1042 23.2446C27.0305 23.3763 27.0305 23.3763 26.9553 23.5106C26.8444 23.6993 26.7312 23.8814 26.6072 24.0616C26.4395 24.2953 26.4395 24.2953 26.3444 24.5586C26.2644 24.7586 26.2644 24.7586 26.0816 24.85C26.0439 24.9292 26.0062 25.0083 25.9673 25.0899C25.6791 25.6457 25.338 25.9963 24.8019 26.3125C24.7191 26.4073 24.6392 26.5046 24.5619 26.6039C24.4544 26.7311 24.4544 26.7311 24.3448 26.861C24.2543 26.861 24.1638 26.861 24.0706 26.861C24.0103 26.9816 23.9499 27.1023 23.8878 27.2266C23.8274 27.2266 23.7671 27.2266 23.705 27.2266C23.705 27.2869 23.705 27.3473 23.705 27.4094C23.3911 27.6528 23.0738 27.8661 22.728 28.0607C22.4361 28.2138 22.4361 28.2138 22.2481 28.3806C21.9614 28.5718 21.664 28.6164 21.3283 28.6891C21.3283 28.7495 21.3283 28.8098 21.3283 28.872C21.1473 28.872 20.9663 28.872 20.7799 28.872C20.7799 28.9323 20.7799 28.9926 20.7799 29.0548C20.2341 29.2863 19.7326 29.4496 19.1345 29.4204C19.173 29.1607 19.2338 29.0451 19.403 28.8377C19.6049 28.5808 19.6872 28.3618 19.7744 28.0493C19.8347 28.0493 19.895 28.0493 19.9572 28.0493C19.9572 27.989 19.9572 27.9286 19.9572 27.8665C19.9984 27.8291 20.0397 27.7918 20.0822 27.7533C20.2874 27.5319 20.3398 27.3148 20.4257 27.0266C20.4561 26.9273 20.4865 26.828 20.5178 26.7256C20.7058 25.9625 20.6998 25.2207 20.6942 24.4386C20.6938 24.3286 20.6933 24.2185 20.6929 24.1051C20.6918 23.8354 20.6903 23.5657 20.6885 23.296C20.6281 23.296 20.5678 23.296 20.5056 23.296C20.4755 23.0547 20.4453 22.8134 20.4142 22.5647C20.3539 22.5647 20.2936 22.5647 20.2314 22.5647C20.2314 22.5044 20.2314 22.4441 20.2314 22.3819C20.1711 22.3819 20.1108 22.3819 20.0486 22.3819C20.0297 22.2914 20.0109 22.2009 19.9915 22.1077C19.8384 21.5677 19.4511 21.1727 19.1002 20.748C18.9517 20.5538 18.9517 20.5538 18.9517 20.3709C18.7405 20.3106 18.5294 20.2503 18.3118 20.1881C18.3118 20.1278 18.3118 20.0675 18.3118 20.0053C18.227 19.9827 18.1421 19.96 18.0547 19.9367C17.7634 19.8225 17.7634 19.8225 17.632 19.6397C17.4236 19.373 17.1694 19.3331 16.8493 19.274C15.6149 19.1582 14.4438 19.1444 13.4147 19.905C13.2023 20.0886 13.0297 20.2709 12.8558 20.4909C12.8027 20.5565 12.7496 20.6222 12.6948 20.6898C12.3878 21.1871 12.3435 21.7115 12.3131 22.2848C12.3096 22.3473 12.306 22.4098 12.3024 22.4742C12.2939 22.6262 12.2863 22.7783 12.2788 22.9304C12.3392 22.9304 12.3995 22.9304 12.4616 22.9304C12.6738 23.2274 12.7758 23.4842 12.8273 23.8445C12.8876 23.8445 12.9479 23.8445 13.0101 23.8445C13.0553 23.935 13.0553 23.935 13.1015 24.0273C13.8076 24.3368 14.4679 24.5585 15.2086 24.2929C15.4841 24.1794 15.7551 24.0586 16.0266 23.9359C16.1171 23.9057 16.2076 23.8756 16.3008 23.8445C16.331 23.754 16.3612 23.6635 16.3922 23.5702C16.4836 23.4788 16.5751 23.3874 16.6665 23.296C16.7739 23.1041 16.7739 23.1041 16.8493 22.9304C16.9096 22.9304 16.9699 22.9304 17.0321 22.9304C17.0903 23.6942 17.0432 24.2287 16.5751 24.85C16.3351 25.1128 16.3351 25.1128 16.118 25.307C16.0746 25.3579 16.0313 25.4088 15.9866 25.4613C15.3094 26.0301 13.9376 25.9164 13.1015 25.8555C13.0412 25.7951 12.9808 25.7348 12.9187 25.6727C12.6837 25.6135 12.6837 25.6135 12.4616 25.5812C12.4616 25.5209 12.4616 25.4606 12.4616 25.3984C12.3938 25.3739 12.3259 25.3494 12.256 25.3242C12.0146 25.2199 11.835 25.1156 11.639 24.9414C11.639 24.8811 11.639 24.8207 11.639 24.7586C11.5183 24.6982 11.3976 24.6379 11.2733 24.5757C11.2733 24.5154 11.2733 24.4551 11.2733 24.3929C11.217 24.3872 11.1607 24.3814 11.1027 24.3754C10.9077 24.3015 10.9077 24.3015 10.7984 24.0991C10.7704 24.0169 10.7423 23.9348 10.7135 23.8502C10.5929 23.4932 10.5929 23.4932 10.3592 23.2046C10.3478 22.9647 10.3478 22.9647 10.3592 22.7476C10.2989 22.7476 10.2386 22.7476 10.1764 22.7476C10.1104 21.1126 10.3213 19.953 11.4608 18.7027C11.6373 18.5217 11.8193 18.3491 12.0046 18.1771C12.0519 18.1274 12.0991 18.0777 12.1478 18.0264C12.6399 17.5405 13.2747 17.3639 13.9242 17.1716C14.0192 17.1409 14.1142 17.1102 14.212 17.0785C15.1558 16.7947 16.0397 16.7539 17.0207 16.7546C18.2889 16.7724 18.2889 16.7724 19.5001 16.4403C19.6163 16.3939 19.6163 16.3939 19.7347 16.3464C19.9312 16.2568 20.1272 16.1661 20.3228 16.0747C20.3882 16.0465 20.4536 16.0184 20.521 15.9894C20.9774 15.783 21.2085 15.5583 21.5111 15.1606C21.6016 15.1003 21.6921 15.04 21.7854 14.9778C22.6737 13.5898 22.6719 11.9878 22.3338 10.4074C22.0711 9.38953 21.6187 8.22609 20.7799 7.57368C20.7799 7.48318 20.7799 7.39269 20.7799 7.29945C20.7233 7.27306 20.6667 7.24666 20.6085 7.21947C20.4142 7.11663 20.4142 7.11663 20.2314 6.93381C20.1324 6.90553 20.1324 6.90553 20.0315 6.87668C19.7562 6.74209 19.6653 6.63237 19.4773 6.39679C19.1854 6.04136 18.9196 5.88995 18.4871 5.74407C18.3118 5.65409 18.3118 5.65409 18.129 5.28845Z" fill="#909090"/>
<path d="M12.0979 5.91639C12.2932 5.91689 12.4885 5.91639 12.6839 5.91581C12.8081 5.91587 12.9324 5.91599 13.0566 5.91617C13.2244 5.91633 13.2244 5.91633 13.3955 5.91648C13.6501 5.92831 13.6501 5.92831 13.7415 6.01972C13.972 6.05623 14.2013 6.08835 14.4328 6.11684C14.4978 6.12515 14.5627 6.13346 14.6297 6.14202C14.7906 6.16254 14.9516 6.18258 15.1126 6.20254C15.1126 6.26287 15.1126 6.3232 15.1126 6.38536C15.1688 6.38983 15.225 6.39431 15.283 6.39892C15.3568 6.40576 15.4307 6.41259 15.5068 6.41963C15.6166 6.42918 15.6166 6.42918 15.7286 6.43892C16.0599 6.49958 16.3196 6.72086 16.5752 6.93381C16.6053 7.0243 16.6355 7.1148 16.6666 7.20804C16.8602 7.32918 16.8602 7.32918 17.0951 7.43085C17.6806 7.71026 18.1374 8.01538 18.5862 8.48776C18.6484 8.54809 18.7106 8.60842 18.7747 8.67058C18.9518 8.8534 18.9518 8.8534 19.1289 9.07621C19.3149 9.3169 19.3149 9.3169 19.546 9.53325C19.8545 9.84948 20.1236 10.1264 20.163 10.5787C20.1554 10.6428 20.1479 10.7069 20.1401 10.773C19.6452 10.7303 19.2987 10.6594 18.8604 10.4074C18.8604 10.347 18.8604 10.2867 18.8604 10.2245C18.7096 10.2245 18.5588 10.2245 18.4034 10.2245C18.4034 10.1642 18.4034 10.1039 18.4034 10.0417C18.3091 10.0342 18.2148 10.0266 18.1177 10.0189C17.7313 9.94408 17.5342 9.80672 17.215 9.58467C16.9657 9.51317 16.9657 9.51317 16.758 9.49326C16.758 9.43293 16.758 9.3726 16.758 9.31044C16.6732 9.3161 16.5883 9.32176 16.5009 9.32758C16.2095 9.31044 16.2095 9.31044 16.0496 9.17904C15.993 9.10834 15.993 9.10834 15.9353 9.03622C15.1765 8.65683 13.9337 8.83765 13.1016 8.8534C13.0385 8.85309 12.9754 8.85278 12.9104 8.85246C11.8518 8.84788 11.1884 9.06548 10.268 9.58467C9.4606 9.95031 9.4606 9.95031 9.07964 9.95031C9.07964 10.0106 9.07964 10.071 9.07964 10.1331C8.58496 10.4988 8.58496 10.4988 8.34837 10.4988C8.34837 10.5591 8.34837 10.6194 8.34837 10.6816C8.19849 10.8065 8.0457 10.9279 7.89132 11.0472C7.82722 11.1113 7.76312 11.1754 7.69708 11.2415C7.52569 11.4128 7.52569 11.4128 7.25146 11.5957C7.16783 11.7443 7.0846 11.8933 7.00366 12.0434C6.86643 12.2672 6.70655 12.4577 6.53733 12.6583C6.02065 13.2928 5.55813 14.0048 5.40043 14.8178C5.3778 14.931 5.35518 15.0441 5.33187 15.1606C5.24138 15.1908 5.15088 15.2209 5.05764 15.252C5.04633 15.3312 5.03502 15.4104 5.02337 15.492C4.96624 15.8005 4.96624 15.8005 4.87277 16.0469C4.7673 16.4034 4.75712 16.7349 4.75914 17.1031C4.75896 17.174 4.75879 17.245 4.75861 17.3181C4.75848 17.4674 4.75882 17.6168 4.75958 17.7661C4.76056 17.9936 4.75959 18.221 4.75842 18.4485C4.75854 18.5942 4.75878 18.7399 4.75914 18.8855C4.75877 18.953 4.7584 19.0204 4.75802 19.0899C4.76163 19.4916 4.82263 19.8138 4.96624 20.1881C5.0127 20.4201 5.05123 20.6522 5.08871 20.8858C5.15718 21.1313 5.2637 21.2715 5.42328 21.4678C5.54874 21.7386 5.6061 21.8986 5.6061 22.1991C5.69659 22.1991 5.78709 22.1991 5.88032 22.1991C5.88032 22.2896 5.88032 22.3801 5.88032 22.4733C5.94065 22.4733 6.00098 22.4733 6.06314 22.4733C6.1395 22.6176 6.1395 22.6176 6.2174 22.7647C6.39901 23.0848 6.62193 23.3131 6.88582 23.5702C6.92683 23.6422 6.96783 23.7142 7.01008 23.7884C7.17483 24.0508 7.35113 24.2124 7.58853 24.4101C7.72321 24.5224 7.85556 24.6378 7.98273 24.7586C7.98273 24.8189 7.98273 24.8792 7.98273 24.9414C8.03175 24.964 8.08077 24.9866 8.13127 25.0099C8.85918 25.393 8.85918 25.393 8.9768 25.6955C8.98057 25.7483 8.98435 25.8011 8.98823 25.8555C9.07495 25.8611 9.16168 25.8668 9.25103 25.8726C9.55448 25.9151 9.78108 26.0146 10.0509 26.1583C11.3133 26.8212 12.5346 26.8756 13.93 26.8667C14.054 26.8662 14.178 26.8658 14.3019 26.8654C14.6026 26.8644 14.9033 26.8629 15.204 26.861C15.204 26.8006 15.204 26.7403 15.204 26.6782C15.3487 26.6342 15.4935 26.5905 15.6382 26.5467C15.7188 26.5224 15.7994 26.498 15.8825 26.4728C16.0821 26.4145 16.2816 26.3612 16.4838 26.3125C16.4838 26.2522 16.4838 26.1919 16.4838 26.1297C16.6155 26.0439 16.7473 25.9584 16.8801 25.8744C17.2119 25.6337 17.4506 25.3315 17.5807 24.9414C17.641 24.9414 17.7013 24.9414 17.7635 24.9414C17.7937 24.5191 17.8238 24.0968 17.8549 23.6617C17.9756 23.6918 18.0962 23.722 18.2205 23.7531C18.2205 24.5072 18.2205 25.2613 18.2205 26.0383C18.1602 26.0383 18.0999 26.0383 18.0377 26.0383C17.9394 26.2807 17.8463 26.5213 17.7635 26.7696C17.7032 26.7696 17.6428 26.7696 17.5807 26.7696C17.5543 26.8393 17.5279 26.9091 17.5007 26.9809C17.3979 27.2266 17.3979 27.2266 17.215 27.5008C17.1547 27.5008 17.0944 27.5008 17.0322 27.5008C17.0058 27.5725 16.9794 27.6441 16.9522 27.7179C16.8494 27.9579 16.8494 27.9579 16.6666 28.1407C16.5405 28.1851 16.4126 28.2245 16.2838 28.2607C15.9886 28.3534 15.7678 28.4533 15.524 28.6434C15.0737 28.9909 14.5812 29.1462 14.0157 29.1462C13.9856 29.2367 13.9554 29.3272 13.9243 29.4204C13.8428 29.426 13.7612 29.4315 13.6772 29.4372C13.5167 29.4487 13.5167 29.4487 13.353 29.4604C13.247 29.4678 13.1409 29.4753 13.0316 29.4829C12.753 29.5021 12.753 29.5021 12.556 29.5597C11.5764 29.7895 10.4266 29.5666 9.44528 29.4204C9.44528 29.3601 9.44528 29.2998 9.44528 29.2376C9.39331 29.2418 9.34135 29.2461 9.28781 29.2505C8.82865 29.2719 8.54942 29.2354 8.15341 28.9762C7.81595 28.7701 7.43669 28.6477 7.06864 28.5063C6.89715 28.438 6.72576 28.3695 6.55447 28.3007C6.47788 28.27 6.40128 28.2394 6.32237 28.2078C6.2393 28.1746 6.2393 28.1746 6.15455 28.1407C6.15455 28.0804 6.15455 28.02 6.15455 27.9579C6.104 27.9335 6.05345 27.9091 6.00137 27.884C5.22062 27.4837 4.52232 26.9933 3.96074 26.3125C3.96074 26.2522 3.96074 26.1919 3.96074 26.1297C3.90041 26.1297 3.84008 26.1297 3.77792 26.1297C3.77792 26.0694 3.77792 26.009 3.77792 25.9469C3.71759 25.9469 3.65726 25.9469 3.5951 25.9469C3.5951 25.8865 3.5951 25.8262 3.5951 25.7641C3.53477 25.7641 3.47444 25.7641 3.41228 25.7641C3.20236 25.5299 3.13806 25.446 3.13806 25.1242C3.07773 25.1242 3.0174 25.1242 2.95524 25.1242C2.5228 24.6496 2.5228 24.6496 2.40678 24.3015C2.35022 24.2468 2.29367 24.1922 2.23539 24.1358C1.93725 23.8289 1.79937 23.5038 1.68515 23.0943C1.57841 22.728 1.44752 22.3807 1.30416 22.0277C1.2796 21.966 1.25503 21.9042 1.22971 21.8406C1.12383 21.5405 1.12383 21.5405 0.94424 21.285C0.922596 21.0389 0.905668 20.7946 0.892823 20.548C0.888875 20.4787 0.884928 20.4093 0.880861 20.3379C0.871137 20.1661 0.861936 19.9943 0.852831 19.8225C0.792501 19.8225 0.732172 19.8225 0.670013 19.8225C0.670013 18.6159 0.670013 17.4093 0.670013 16.1661C0.730343 16.1661 0.790673 16.1661 0.852831 16.1661C0.847765 16.064 0.842698 15.9618 0.837478 15.8565C0.837991 15.3895 0.958577 14.9804 1.09849 14.5379C1.12334 14.4573 1.14819 14.3767 1.17379 14.2937C1.35926 13.7063 1.58353 13.1526 1.85833 12.6012C1.92954 12.4434 2.00004 12.2854 2.06971 12.127C2.09952 12.0597 2.12934 11.9924 2.16005 11.9231C2.18114 11.8754 2.20223 11.8277 2.22397 11.7785C2.2843 11.7785 2.34463 11.7785 2.40678 11.7785C2.4439 11.7034 2.4439 11.7034 2.48177 11.6267C3.08915 10.422 3.08915 10.422 3.50369 9.95031C3.55271 9.88055 3.60173 9.81079 3.65223 9.73892C3.69371 9.68802 3.73518 9.63712 3.77792 9.58467C3.83825 9.58467 3.89858 9.58467 3.96074 9.58467C3.98336 9.53565 4.00598 9.48663 4.02929 9.43613C4.30171 8.91854 4.54347 8.61956 5.04622 8.3303C5.23921 8.21429 5.40775 8.08578 5.58325 7.94502C6.26996 7.42021 7.09918 7.08688 7.89132 6.75099C7.96556 6.71894 8.03979 6.68689 8.11627 6.65387C8.56132 6.46763 8.98672 6.33078 9.46241 6.24753C9.64945 6.21148 9.64945 6.21148 9.81091 6.01972C10.5527 5.87036 11.3433 5.91409 12.0979 5.91639Z" fill="#909090"/>
<circle cx="10.1654" cy="2.81492" r="2.47349" fill="#909090"/>
<circle cx="25.8818" cy="6.7967" r="1.50825" fill="#909090"/>
<circle cx="11.9078" cy="16.6248" r="0.731272" fill="#909090"/>
</svg>
